<svg height="512" viewBox="0 0 64 64" width="512" xmlns="http://www.w3.org/2000/svg"><g id="Exit-Out-Arrow-Arrows-Direction-User_Interface" data-name="Exit-Out-Arrow-Arrows-Direction-User Interface"><path d="m61 5v14a3 3 0 0 1 -6 0v-5.76l-23.7 23.7a3 3 0 0 1 -4.24-4.24l23.7-23.7h-5.76a3 3 0 0 1 0-6h14a2.006 2.006 0 0 1 2 2z" fill="#bddbff"/><path d="m60.83 35.02c0 .11-.01.22-.02.34a29 29 0 1 1 -32.17-32.17 3.012 3.012 0 0 1 2.61 4.98 2.98 2.98 0 0 1 -1.89.98 23 23 0 1 0 25.49 25.49 2.978 2.978 0 0 1 2.97-2.64 3.015 3.015 0 0 1 3.01 3.02z" fill="#bddbff"/><g fill="#3d9ae2"><path d="m31.979 62q-.939 0-1.889-.059a30 30 0 0 1 -1.565-59.741 4 4 0 1 1 .947 7.945 22 22 0 1 0 24.384 24.383 4 4 0 0 1 7.945.948 30 30 0 0 1 -29.822 26.524zm-2.994-57.828a1.989 1.989 0 0 0 -.231.014 28 28 0 1 0 31.06 31.06 2.023 2.023 0 0 0 -.5-1.576 1.995 1.995 0 0 0 -3.472 1.086 24 24 0 1 1 -26.6-26.6 1.994 1.994 0 0 0 1.085-3.472 2.017 2.017 0 0 0 -1.342-.512z"/><path d="m29.181 38.82a4 4 0 0 1 -2.829-6.829l21.992-21.991h-3.344a4 4 0 0 1 0-8h14a3 3 0 0 1 3 3v14a4 4 0 0 1 -8 0v-3.343l-21.991 21.991a3.973 3.973 0 0 1 -2.828 1.172zm15.819-34.82a2 2 0 0 0 0 4h5.758a1 1 0 0 1 .707 1.707l-23.7 23.7a2 2 0 0 0 0 2.829 2.049 2.049 0 0 0 2.829 0l23.7-23.7a1 1 0 0 1 1.706.707v5.757a2 2 0 0 0 4 0v-14a1 1 0 0 0 -1-1z"/></g></g></svg>