<?xml version="1.0" standalone="no"?>
<!DOCTYPE svg PUBLIC "-//W3C//DTD SVG 20010904//EN"
 "http://www.w3.org/TR/2001/REC-SVG-20010904/DTD/svg10.dtd">
<svg version="1.0" xmlns="http://www.w3.org/2000/svg"
 width="404.000000pt" height="404.000000pt" viewBox="0 0 404.000000 404.000000"
 preserveAspectRatio="xMidYMid meet">
<metadata>
Created by potrace 1.16, written by Peter Selinger 2001-2019
</metadata>
<g transform="translate(0.000000,404.000000) scale(0.100000,-0.100000)"
fill="#000000" stroke="none">
<path d="M1740 4025 c-52 -7 -151 -27 -220 -44 -720 -184 -1274 -737 -1460
-1457 -78 -302 -81 -666 -9 -977 169 -721 746 -1307 1464 -1486 205 -51 254
-56 505 -56 251 0 300 5 505 56 718 179 1295 765 1464 1486 71 303 69 669 -4
961 -125 495 -422 917 -845 1199 -245 163 -560 281 -850 318 -137 18 -416 18
-550 0z m4 -875 c82 -32 149 -98 170 -170 55 -183 44 -285 -56 -535 -61 -152
-63 -266 -4 -297 18 -10 25 -5 62 37 35 40 43 44 47 29 5 -16 27 -132 27 -141
0 -2 18 -3 40 -3 60 0 141 -19 185 -45 l40 -22 85 64 85 64 3 -43 c8 -98 -32
-306 -74 -390 -45 -89 -158 -180 -271 -219 -50 -17 -58 -17 -73 -4 -19 17 -63
20 -91 4 -17 -9 -27 -4 -60 25 -48 44 -88 47 -124 12 l-25 -25 -57 31 c-128
68 -291 235 -323 333 -7 20 -17 34 -22 33 -6 -2 -19 -36 -29 -74 -10 -39 -27
-92 -39 -118 -11 -26 -20 -51 -20 -55 0 -5 18 -16 39 -26 56 -25 88 -61 75
-83 -19 -30 -56 -43 -112 -39 -93 7 -133 55 -157 195 -35 195 -3 397 95 604
24 52 30 75 25 99 -4 17 -11 27 -15 22 -13 -14 -89 -230 -121 -343 -16 -58
-36 -161 -44 -230 -37 -307 -107 -404 -290 -404 -97 0 -148 14 -211 57 -69 46
-104 116 -104 208 0 54 3 67 14 63 19 -7 29 48 11 62 -29 22 41 210 126 335
23 35 104 127 179 204 160 165 207 236 286 430 66 163 97 210 179 272 118 89
200 114 370 109 95 -2 132 -8 179 -26z m953 -1309 c65 -40 170 -216 189 -316
7 -38 6 -39 -12 -25 -112 85 -200 183 -243 268 -22 43 -18 73 11 85 20 8 21 8
55 -12z m450 -393 c31 -30 34 -31 71 -20 51 15 57 15 76 -4 21 -20 21 -60 0
-68 -25 -9 -125 -7 -165 4 -48 13 -103 51 -107 73 -11 55 74 65 125 15z"/>
</g>
</svg>
