<svg width="48" fill="#000000" xmlns="http://www.w3.org/2000/svg" height="48" viewBox="0 0 48 48" xmlns:xlink="http://www.w3.org/1999/xlink" enable-background="new 0 0 16 16">
<path d="m24,48c-13.254,0-24-10.746-24-24s10.746-24 24-24 24,10.746 24,24-10.746,24-24,24zm0-42c-9.939,0-18,8.061-18,18s8.061,18 18,18 18-8.061 18-18-8.061-18-18-18zm8.484,26.484c-1.173,1.173-3.069,1.173-4.242,0l-4.242-4.242-4.242,4.242c-1.173,1.173-3.072,1.173-4.245,0s-1.173-3.069 0-4.242l4.245-4.242-4.245-4.242c-1.173-1.173-1.173-3.072 0-4.245s3.072-1.173 4.245,0l4.242,4.245 4.242-4.245c1.173-1.173 3.069-1.173 4.242,0s1.173,3.072 0,4.245l-4.242,4.242 4.242,4.242c1.173,1.173 1.173,3.072 0,4.242z"/>
</svg>
